<svg width="1200" height="560" viewBox="0 0 1200 560" preserveAspectRatio="xMidYMid meet" role="img" xmlns="http://www.w3.org/2000/svg">
<title>Bravetto hero — a semantic field resolving into an awake, guarded core</title>
<desc>A cool neuromorphic mesh flows from the left and converges into a warm luminous core held inside a hexagonal guardian frame, with signal pulses traveling inward.</desc>
<rect width="1200" height="560" fill="#0C0F28"/>
<rect x="0" y="0" width="1200" height="560" fill="#0A0C20" opacity="0.0"/>
<line x1="0" y1="0" x2="0" y2="560" stroke="#141A44" stroke-width="1" opacity="0.25"/>
<line x1="60" y1="0" x2="60" y2="560" stroke="#141A44" stroke-width="1" opacity="0.25"/>
<line x1="120" y1="0" x2="120" y2="560" stroke="#141A44" stroke-width="1" opacity="0.25"/>
<line x1="180" y1="0" x2="180" y2="560" stroke="#141A44" stroke-width="1" opacity="0.25"/>
<line x1="240" y1="0" x2="240" y2="560" stroke="#141A44" stroke-width="1" opacity="0.25"/>
<line x1="300" y1="0" x2="300" y2="560" stroke="#141A44" stroke-width="1" opacity="0.25"/>
<line x1="360" y1="0" x2="360" y2="560" stroke="#141A44" stroke-width="1" opacity="0.25"/>
<line x1="420" y1="0" x2="420" y2="560" stroke="#141A44" stroke-width="1" opacity="0.25"/>
<line x1="480" y1="0" x2="480" y2="560" stroke="#141A44" stroke-width="1" opacity="0.25"/>
<line x1="540" y1="0" x2="540" y2="560" stroke="#141A44" stroke-width="1" opacity="0.25"/>
<line x1="600" y1="0" x2="600" y2="560" stroke="#141A44" stroke-width="1" opacity="0.25"/>
<line x1="660" y1="0" x2="660" y2="560" stroke="#141A44" stroke-width="1" opacity="0.25"/>
<line x1="720" y1="0" x2="720" y2="560" stroke="#141A44" stroke-width="1" opacity="0.25"/>
<line x1="780" y1="0" x2="780" y2="560" stroke="#141A44" stroke-width="1" opacity="0.25"/>
<line x1="840" y1="0" x2="840" y2="560" stroke="#141A44" stroke-width="1" opacity="0.25"/>
<line x1="900" y1="0" x2="900" y2="560" stroke="#141A44" stroke-width="1" opacity="0.25"/>
<line x1="960" y1="0" x2="960" y2="560" stroke="#141A44" stroke-width="1" opacity="0.25"/>
<line x1="1020" y1="0" x2="1020" y2="560" stroke="#141A44" stroke-width="1" opacity="0.25"/>
<line x1="1080" y1="0" x2="1080" y2="560" stroke="#141A44" stroke-width="1" opacity="0.25"/>
<line x1="1140" y1="0" x2="1140" y2="560" stroke="#141A44" stroke-width="1" opacity="0.25"/>
<line x1="183.9" y1="133.4" x2="278.8" y2="100.4" stroke="#6968A8" stroke-width="0.76" opacity="0.17"/>
<line x1="183.9" y1="133.4" x2="245.4" y2="223.6" stroke="#6867A8" stroke-width="0.75" opacity="0.16"/>
<line x1="278.8" y1="100.4" x2="373.1" y2="89.6" stroke="#7F76A0" stroke-width="0.94" opacity="0.24"/>
<line x1="278.8" y1="100.4" x2="339.0" y2="191.6" stroke="#7E75A0" stroke-width="0.93" opacity="0.24"/>
<line x1="245.4" y1="223.6" x2="257.4" y2="236.6" stroke="#736EA4" stroke-width="0.84" opacity="0.20"/>
<line x1="245.4" y1="223.6" x2="339.0" y2="191.6" stroke="#7D74A1" stroke-width="0.92" opacity="0.23"/>
<line x1="106.8" y1="283.1" x2="125.9" y2="163.8" stroke="#5F62AC" stroke-width="0.68" opacity="0.13"/>
<line x1="106.8" y1="283.1" x2="179.5" y2="412.8" stroke="#5F62AC" stroke-width="0.68" opacity="0.13"/>
<line x1="100.9" y1="252.1" x2="125.9" y2="163.8" stroke="#5F62AC" stroke-width="0.68" opacity="0.13"/>
<line x1="100.9" y1="252.1" x2="131.8" y2="119.5" stroke="#5F62AC" stroke-width="0.68" opacity="0.13"/>
<line x1="110.3" y1="108.1" x2="131.8" y2="119.5" stroke="#5F62AC" stroke-width="0.68" opacity="0.13"/>
<line x1="110.3" y1="108.1" x2="125.9" y2="163.8" stroke="#5F62AC" stroke-width="0.68" opacity="0.13"/>
<line x1="213.1" y1="417.3" x2="272.0" y2="468.0" stroke="#6C6AA7" stroke-width="0.78" opacity="0.18"/>
<line x1="213.1" y1="417.3" x2="257.4" y2="236.6" stroke="#6E6BA6" stroke-width="0.80" opacity="0.18"/>
<line x1="125.9" y1="163.8" x2="183.9" y2="133.4" stroke="#5F62AC" stroke-width="0.68" opacity="0.13"/>
<line x1="125.9" y1="163.8" x2="245.4" y2="223.6" stroke="#6867A8" stroke-width="0.75" opacity="0.16"/>
<line x1="272.0" y1="468.0" x2="432.8" y2="374.1" stroke="#897C9C" stroke-width="1.02" opacity="0.28"/>
<line x1="257.4" y1="236.6" x2="339.0" y2="191.6" stroke="#7E75A0" stroke-width="0.93" opacity="0.24"/>
<line x1="257.4" y1="236.6" x2="412.3" y2="153.9" stroke="#877A9D" stroke-width="1.00" opacity="0.27"/>
<line x1="373.1" y1="89.6" x2="433.1" y2="118.3" stroke="#928298" stroke-width="1.10" opacity="0.31"/>
<line x1="373.1" y1="89.6" x2="412.3" y2="153.9" stroke="#918199" stroke-width="1.09" opacity="0.31"/>
<line x1="339.0" y1="191.6" x2="412.3" y2="153.9" stroke="#908199" stroke-width="1.08" opacity="0.30"/>
<line x1="339.0" y1="191.6" x2="433.1" y2="118.3" stroke="#928199" stroke-width="1.09" opacity="0.31"/>
<line x1="131.8" y1="119.5" x2="183.9" y2="133.4" stroke="#5F62AC" stroke-width="0.68" opacity="0.13"/>
<line x1="131.8" y1="119.5" x2="278.8" y2="100.4" stroke="#6968A8" stroke-width="0.76" opacity="0.17"/>
<line x1="179.5" y1="412.8" x2="213.1" y2="417.3" stroke="#6364AA" stroke-width="0.71" opacity="0.15"/>
<line x1="179.5" y1="412.8" x2="272.0" y2="468.0" stroke="#6968A8" stroke-width="0.76" opacity="0.17"/>
<line x1="433.1" y1="118.3" x2="527.9" y2="182.7" stroke="#A99090" stroke-width="1.28" opacity="0.39"/>
<line x1="433.1" y1="118.3" x2="533.0" y2="215.3" stroke="#AB918F" stroke-width="1.29" opacity="0.39"/>
<line x1="412.3" y1="153.9" x2="433.1" y2="118.3" stroke="#9A8795" stroke-width="1.15" opacity="0.33"/>
<line x1="412.3" y1="153.9" x2="527.9" y2="182.7" stroke="#A89090" stroke-width="1.27" opacity="0.38"/>
<line x1="432.8" y1="374.1" x2="508.7" y2="354.3" stroke="#AA918F" stroke-width="1.29" opacity="0.39"/>
<line x1="432.8" y1="374.1" x2="517.9" y2="314.8" stroke="#AC928E" stroke-width="1.30" opacity="0.40"/>
<line x1="527.9" y1="182.7" x2="533.0" y2="215.3" stroke="#B99A8A" stroke-width="1.41" opacity="0.44"/>
<line x1="527.9" y1="182.7" x2="609.8" y2="229.9" stroke="#C3A186" stroke-width="1.49" opacity="0.48"/>
<line x1="511.8" y1="259.8" x2="533.0" y2="215.3" stroke="#B99A8A" stroke-width="1.40" opacity="0.44"/>
<line x1="511.8" y1="259.8" x2="595.3" y2="288.3" stroke="#C1A086" stroke-width="1.48" opacity="0.47"/>
<line x1="517.9" y1="314.8" x2="591.2" y2="315.1" stroke="#C1A086" stroke-width="1.48" opacity="0.47"/>
<line x1="517.9" y1="314.8" x2="595.3" y2="288.3" stroke="#C2A086" stroke-width="1.48" opacity="0.47"/>
<line x1="533.0" y1="215.3" x2="609.8" y2="229.9" stroke="#C5A285" stroke-width="1.50" opacity="0.48"/>
<line x1="533.0" y1="215.3" x2="607.7" y2="241.8" stroke="#C5A285" stroke-width="1.50" opacity="0.48"/>
<line x1="508.7" y1="354.3" x2="517.9" y2="314.8" stroke="#B6998B" stroke-width="1.39" opacity="0.43"/>
<line x1="508.7" y1="354.3" x2="591.2" y2="315.1" stroke="#C09E87" stroke-width="1.46" opacity="0.46"/>
<line x1="609.8" y1="229.9" x2="629.1" y2="241.4" stroke="#D1AA80" stroke-width="1.61" opacity="0.53"/>
<line x1="609.8" y1="229.9" x2="707.4" y2="191.0" stroke="#D9AF7D" stroke-width="1.67" opacity="0.55"/>
<line x1="607.7" y1="241.8" x2="629.1" y2="241.4" stroke="#D1AA80" stroke-width="1.61" opacity="0.53"/>
<line x1="607.7" y1="241.8" x2="707.4" y2="191.0" stroke="#D9AF7D" stroke-width="1.67" opacity="0.55"/>
<line x1="591.2" y1="315.1" x2="607.7" y2="241.8" stroke="#CDA782" stroke-width="1.57" opacity="0.51"/>
<line x1="591.2" y1="315.1" x2="629.1" y2="241.4" stroke="#CFA881" stroke-width="1.59" opacity="0.52"/>
<line x1="595.3" y1="288.3" x2="607.7" y2="241.8" stroke="#CDA782" stroke-width="1.57" opacity="0.51"/>
<line x1="595.3" y1="288.3" x2="629.1" y2="241.4" stroke="#D0A981" stroke-width="1.60" opacity="0.52"/>
<line x1="629.1" y1="241.4" x2="707.4" y2="191.0" stroke="#DCB07C" stroke-width="1.69" opacity="0.56"/>
<line x1="629.1" y1="241.4" x2="704.2" y2="324.8" stroke="#DEB17C" stroke-width="1.71" opacity="0.57"/>
<line x1="707.4" y1="191.0" x2="769.9" y2="228.1" stroke="#EDBB76" stroke-width="1.83" opacity="0.62"/>
<line x1="707.4" y1="191.0" x2="777.7" y2="171.3" stroke="#EAB977" stroke-width="1.80" opacity="0.61"/>
<line x1="703.2" y1="339.0" x2="741.2" y2="347.7" stroke="#EBBA77" stroke-width="1.81" opacity="0.61"/>
<line x1="703.2" y1="339.0" x2="761.0" y2="326.6" stroke="#EEBC75" stroke-width="1.84" opacity="0.62"/>
<line x1="691.8" y1="361.6" x2="703.2" y2="339.0" stroke="#E4B579" stroke-width="1.76" opacity="0.59"/>
<line x1="691.8" y1="361.6" x2="704.2" y2="324.8" stroke="#E5B679" stroke-width="1.76" opacity="0.59"/>
<line x1="704.2" y1="324.8" x2="741.2" y2="347.7" stroke="#EBBA76" stroke-width="1.82" opacity="0.61"/>
<line x1="704.2" y1="324.8" x2="761.0" y2="326.6" stroke="#EEBC75" stroke-width="1.84" opacity="0.62"/>
<line x1="761.0" y1="326.6" x2="771.6" y2="317.4" stroke="#F5C073" stroke-width="1.90" opacity="0.62"/>
<line x1="761.0" y1="326.6" x2="788.0" y2="295.9" stroke="#F5C073" stroke-width="1.90" opacity="0.62"/>
<line x1="769.9" y1="228.1" x2="788.0" y2="295.9" stroke="#F6C173" stroke-width="1.90" opacity="0.62"/>
<line x1="769.9" y1="228.1" x2="771.6" y2="317.4" stroke="#F6C173" stroke-width="1.90" opacity="0.62"/>
<line x1="760.9" y1="312.6" x2="771.6" y2="317.4" stroke="#F6C173" stroke-width="1.90" opacity="0.62"/>
<line x1="760.9" y1="312.6" x2="788.0" y2="295.9" stroke="#F6C173" stroke-width="1.90" opacity="0.62"/>
<line x1="771.6" y1="317.4" x2="788.0" y2="295.9" stroke="#F6C173" stroke-width="1.90" opacity="0.62"/>
<line x1="741.2" y1="347.7" x2="761.0" y2="326.6" stroke="#F2BE74" stroke-width="1.87" opacity="0.62"/>
<line x1="741.2" y1="347.7" x2="760.9" y2="312.6" stroke="#F2BE74" stroke-width="1.87" opacity="0.62"/>
<line x1="1016.5" y1="173.8" x2="1050.0" y2="261.4" stroke="#F3BF74" stroke-width="1.88" opacity="0.62"/>
<line x1="777.7" y1="171.3" x2="769.9" y2="228.1" stroke="#F3BF74" stroke-width="1.88" opacity="0.62"/>
<line x1="777.7" y1="171.3" x2="788.0" y2="295.9" stroke="#F3BF74" stroke-width="1.88" opacity="0.62"/>
<line x1="888.6" y1="112.6" x2="1016.5" y2="173.8" stroke="#F0BD75" stroke-width="1.85" opacity="0.62"/>
<line x1="888.6" y1="112.6" x2="769.9" y2="228.1" stroke="#F2BE74" stroke-width="1.87" opacity="0.62"/>
<line x1="1140.0" y1="284.2" x2="1081.7" y2="297.1" stroke="#E4B679" stroke-width="1.76" opacity="0.59"/>
<line x1="1140.0" y1="284.2" x2="1050.0" y2="261.4" stroke="#E8B878" stroke-width="1.79" opacity="0.60"/>
<line x1="1063.3" y1="197.9" x2="1043.3" y2="222.7" stroke="#EFBC75" stroke-width="1.85" opacity="0.62"/>
<line x1="1063.3" y1="197.9" x2="1016.5" y2="173.8" stroke="#EEBC75" stroke-width="1.84" opacity="0.62"/>
<line x1="1081.7" y1="297.1" x2="1050.0" y2="261.4" stroke="#F0BD75" stroke-width="1.85" opacity="0.62"/>
<line x1="1081.7" y1="297.1" x2="1043.3" y2="222.7" stroke="#EFBD75" stroke-width="1.85" opacity="0.62"/>
<circle cx="900" cy="285" r="179" fill="none" stroke="#6E74C4" stroke-width="1" opacity="0.22" stroke-dasharray="2 8"/>
<polygon points="900.0,430.0 774.4,357.5 774.4,212.5 900.0,140.0 1025.6,212.5 1025.6,357.5" fill="none" stroke="#6E74C4" stroke-width="1.4" opacity="0.55"/>
<polygon points="900.0,430.0 774.4,357.5 774.4,212.5 900.0,140.0 1025.6,212.5 1025.6,357.5" fill="#F2A63C" opacity="0.05"/>
<circle cx="900" cy="285" r="96" fill="#F2A63C" opacity="0.1"/>
<circle cx="900" cy="285" r="70" fill="#F2A63C" opacity="0.16"/>
<circle cx="900" cy="285" r="46" fill="#F6C173" opacity="0.28"/>
<circle cx="900" cy="285" r="26" fill="#FCE7B4" opacity="0.55"/>
<circle cx="900" cy="285" r="12" fill="#FCE7B4" opacity="0.95"/>
<circle cx="900" cy="285" r="120" fill="none" stroke="#F6C173" stroke-width="1" opacity="0.25"/>
<circle cx="183.9" cy="133.4" r="1.8" fill="#5F62AC" opacity="0.29"/>
<circle cx="278.8" cy="100.4" r="2.1" fill="#746FA4" opacity="0.38"/>
<circle cx="245.4" cy="223.6" r="2.1" fill="#716DA5" opacity="0.37"/>
<circle cx="106.8" cy="283.1" r="1.8" fill="#5F62AC" opacity="0.29"/>
<circle cx="100.9" cy="252.1" r="1.8" fill="#5F62AC" opacity="0.29"/>
<circle cx="110.3" cy="108.1" r="1.8" fill="#5F62AC" opacity="0.29"/>
<circle cx="213.1" cy="417.3" r="1.9" fill="#6666A9" opacity="0.32"/>
<circle cx="125.9" cy="163.8" r="1.8" fill="#5F62AC" opacity="0.29"/>
<circle cx="272.0" cy="468.0" r="2.1" fill="#726EA5" opacity="0.38"/>
<circle cx="257.4" cy="236.6" r="2.1" fill="#756FA4" opacity="0.39"/>
<circle cx="373.1" cy="89.6" r="2.5" fill="#8A7D9C" opacity="0.48"/>
<circle cx="339.0" cy="191.6" r="2.4" fill="#887B9C" opacity="0.47"/>
<circle cx="131.8" cy="119.5" r="1.8" fill="#5F62AC" opacity="0.29"/>
<circle cx="179.5" cy="412.8" r="1.8" fill="#5F62AC" opacity="0.29"/>
<circle cx="433.1" cy="118.3" r="2.7" fill="#9B8795" opacity="0.55"/>
<circle cx="412.3" cy="153.9" r="2.7" fill="#998696" opacity="0.54"/>
<circle cx="432.8" cy="374.1" r="2.8" fill="#A08B93" opacity="0.58"/>
<circle cx="527.9" cy="182.7" r="3.2" fill="#B7998A" opacity="0.68"/>
<circle cx="511.8" cy="259.8" r="3.2" fill="#B7998B" opacity="0.67"/>
<circle cx="517.9" cy="314.8" r="3.2" fill="#B89A8A" opacity="0.68"/>
<circle cx="533.0" cy="215.3" r="3.2" fill="#BB9B89" opacity="0.69"/>
<circle cx="508.7" cy="354.3" r="3.1" fill="#B4978B" opacity="0.67"/>
<circle cx="609.8" cy="229.9" r="3.6" fill="#CFA881" opacity="0.78"/>
<circle cx="607.7" cy="241.8" r="3.6" fill="#CFA881" opacity="0.78"/>
<circle cx="591.2" cy="315.1" r="3.5" fill="#CBA683" opacity="0.76"/>
<circle cx="595.3" cy="288.3" r="3.5" fill="#CCA682" opacity="0.77"/>
<circle cx="629.1" cy="241.4" r="3.7" fill="#D4AB7F" opacity="0.80"/>
<circle cx="707.4" cy="191.0" r="3.9" fill="#E4B579" opacity="0.87"/>
<circle cx="703.2" cy="339.0" r="4.0" fill="#F6C173" opacity="0.88"/>
<circle cx="691.8" cy="361.6" r="3.9" fill="#E2B47A" opacity="0.86"/>
<circle cx="704.2" cy="324.8" r="4.0" fill="#F6C173" opacity="0.89"/>
<circle cx="761.0" cy="326.6" r="4.2" fill="#F6C173" opacity="0.95"/>
<circle cx="769.9" cy="228.1" r="4.2" fill="#F6C173" opacity="0.95"/>
<circle cx="760.9" cy="312.6" r="4.2" fill="#F6C173" opacity="0.95"/>
<circle cx="771.6" cy="317.4" r="4.2" fill="#F6C173" opacity="0.95"/>
<circle cx="788.0" cy="295.9" r="4.2" fill="#F6C173" opacity="0.95"/>
<circle cx="741.2" cy="347.7" r="4.1" fill="#F6C173" opacity="0.92"/>
<circle cx="1016.5" cy="173.8" r="4.1" fill="#F6C173" opacity="0.93"/>
<circle cx="1043.3" cy="222.7" r="4.2" fill="#F6C173" opacity="0.94"/>
<circle cx="777.7" cy="171.3" r="4.1" fill="#F6C173" opacity="0.93"/>
<circle cx="930.0" cy="449.6" r="4.1" fill="#F6C173" opacity="0.92"/>
<circle cx="888.6" cy="112.6" r="4.1" fill="#F6C173" opacity="0.92"/>
<circle cx="1140.0" cy="284.2" r="3.8" fill="#DDB17C" opacity="0.84"/>
<circle cx="1050.0" cy="261.4" r="4.2" fill="#F6C173" opacity="0.94"/>
<circle cx="1063.3" cy="197.9" r="4.0" fill="#F6C173" opacity="0.90"/>
<circle cx="1081.7" cy="297.1" r="4.0" fill="#F6C173" opacity="0.91"/>
<circle r="3.2" fill="#FCE7B4"><animateMotion dur="3.2s" begin="0.0s" repeatCount="indefinite" path="M629 241 L704 325 L900 285"/><animate attributeName="opacity" dur="3.2s" begin="0.0s" repeatCount="indefinite" values="0;1;1;0" keyTimes="0;0.1;0.7;1"/></circle>
<circle r="3.2" fill="#FCE7B4"><animateMotion dur="3.9000000000000004s" begin="0.6s" repeatCount="indefinite" path="M741 348 L761 313 L900 285"/><animate attributeName="opacity" dur="3.9000000000000004s" begin="0.6s" repeatCount="indefinite" values="0;1;1;0" keyTimes="0;0.1;0.7;1"/></circle>
<circle r="3.2" fill="#FCE7B4"><animateMotion dur="4.6s" begin="1.2s" repeatCount="indefinite" path="M608 242 L707 191 L900 285"/><animate attributeName="opacity" dur="4.6s" begin="1.2s" repeatCount="indefinite" values="0;1;1;0" keyTimes="0;0.1;0.7;1"/></circle>
<circle r="3.2" fill="#FCE7B4"><animateMotion dur="3.2s" begin="1.7999999999999998s" repeatCount="indefinite" path="M770 228 L788 296 L900 285"/><animate attributeName="opacity" dur="3.2s" begin="1.7999999999999998s" repeatCount="indefinite" values="0;1;1;0" keyTimes="0;0.1;0.7;1"/></circle>
<circle r="3.2" fill="#FCE7B4"><animateMotion dur="3.9000000000000004s" begin="2.4s" repeatCount="indefinite" path="M1140 284 L1050 261 L900 285"/><animate attributeName="opacity" dur="3.9000000000000004s" begin="2.4s" repeatCount="indefinite" values="0;1;1;0" keyTimes="0;0.1;0.7;1"/></circle>
<circle r="3.2" fill="#FCE7B4"><animateMotion dur="4.6s" begin="3.0s" repeatCount="indefinite" path="M778 171 L770 228 L900 285"/><animate attributeName="opacity" dur="4.6s" begin="3.0s" repeatCount="indefinite" values="0;1;1;0" keyTimes="0;0.1;0.7;1"/></circle>
<circle cx="900" cy="285" r="12" fill="none" stroke="#FCE7B4" stroke-width="1.5" opacity="0.6"><animate attributeName="r" dur="4s" repeatCount="indefinite" values="12;120;120" keyTimes="0;0.8;1"/><animate attributeName="opacity" dur="4s" repeatCount="indefinite" values="0.7;0;0" keyTimes="0;0.8;1"/></circle>
</svg>